<?xml version="1.0" standalone="no"?>
<!DOCTYPE svg PUBLIC "-//W3C//DTD SVG 20010904//EN"
 "http://www.w3.org/TR/2001/REC-SVG-20010904/DTD/svg10.dtd">
<svg version="1.0" xmlns="http://www.w3.org/2000/svg"
 width="512.000000pt" height="512.000000pt" viewBox="0 0 512.000000 512.000000"
 preserveAspectRatio="xMidYMid meet">

<g transform="translate(0.000000,512.000000) scale(0.100000,-0.100000)"
fill="#000000" stroke="none">
<path d="M1258 4213 c-14 -16 -139 -181 -278 -368 -139 -187 -256 -344 -261
-350 -6 -6 -89 70 -217 198 -185 184 -212 207 -240 207 -22 0 -41 -9 -57 -25
l-25 -24 0 -779 0 -780 -22 -6 c-36 -9 -96 -63 -126 -114 -23 -40 -27 -58 -27
-122 0 -53 6 -85 19 -110 25 -49 74 -98 118 -121 l38 -19 0 -434 c0 -423 0
-434 21 -460 l20 -26 1808 0 c1974 0 1840 -4 1855 56 9 36 -9 79 -40 93 -18 8
-493 11 -1764 11 l-1740 0 0 155 0 154 369 3 369 3 26 24 c35 33 35 83 1 116
l-24 25 -371 0 -370 0 0 140 0 140 39 19 c53 28 108 95 126 155 19 63 19 90
-1 155 -17 60 -93 145 -138 157 l-26 6 0 667 0 666 468 -467 c303 -303 476
-469 494 -473 14 -4 36 -1 49 5 12 7 290 240 616 517 l594 504 57 -49 c339
-291 1135 -963 1152 -972 12 -6 34 -9 48 -5 18 4 191 170 495 473 l467 467 0
-661 0 -661 -49 -31 c-147 -91 -174 -277 -57 -400 17 -19 48 -42 69 -53 l37
-19 0 -140 0 -140 -1716 0 -1716 0 -30 -30 c-25 -26 -29 -36 -24 -62 8 -42 22
-56 65 -68 23 -6 618 -10 1729 -10 l1692 0 0 -155 0 -155 -340 0 -341 0 -24
-25 c-31 -30 -32 -73 -4 -109 l20 -26 404 0 404 0 20 26 c21 26 21 37 21 460
l0 434 38 19 c44 23 93 72 118 121 13 25 19 57 19 110 0 64 -4 82 -27 122 -30
51 -90 105 -125 114 l-23 6 0 780 0 779 -25 24 c-16 16 -35 25 -57 25 -28 0
-55 -23 -240 -207 -128 -128 -211 -204 -217 -198 -5 6 -122 163 -261 350 -139
187 -264 352 -278 368 -25 26 -61 34 -95 21 -9 -3 -165 -174 -348 -380 -286
-322 -334 -372 -348 -361 -8 6 -118 99 -243 204 -126 106 -239 195 -252 199
-13 3 -35 0 -48 -7 -12 -7 -121 -96 -241 -198 -120 -102 -226 -192 -236 -199
-16 -11 -53 27 -350 362 -183 206 -339 377 -348 380 -34 13 -70 5 -95 -21z
m356 -507 c158 -179 287 -328 288 -331 0 -4 -129 -117 -287 -251 l-288 -244
-46 39 c-25 22 -138 132 -250 244 l-204 205 248 331 c136 182 248 331 250 331
1 0 132 -146 289 -324z m2431 -7 l248 -331 -244 -244 c-134 -134 -246 -244
-250 -244 -6 0 -575 481 -581 491 -3 5 570 659 578 659 1 0 113 -149 249 -331z"/>
<path d="M2438 2561 c-209 -67 -337 -272 -299 -478 42 -230 259 -389 482 -354
187 31 329 171 361 359 52 303 -251 566 -544 473z"/>
<path d="M1234 2294 c-54 -19 -119 -76 -147 -128 -17 -32 -22 -58 -22 -116 0
-83 15 -121 69 -178 53 -57 101 -77 186 -77 57 0 84 5 115 22 161 86 192 287
65 414 -72 72 -173 96 -266 63z"/>
<path d="M3716 2294 c-94 -29 -176 -143 -176 -244 0 -86 65 -191 144 -233 58
-30 174 -31 231 0 47 25 95 74 121 123 26 48 26 171 0 220 -30 58 -86 109
-143 130 -63 23 -109 24 -177 4z"/>
</g>
</svg>
